<svg id="svg" version="1.1" xmlns="http://www.w3.org/2000/svg" xmlns:xlink="http://www.w3.org/1999/xlink" width="400" height="400" viewBox="0, 0, 400,400"><g id="svgg"><path id="path0" d="M193.833 50.331 C 182.319 51.075,147.278 57.561,126.308 62.829 C 114.924 65.688,108.186 71.393,105.040 80.833 C 104.079 83.718,96.198 122.661,96.403 123.514 C 96.469 123.789,99.463 122.957,105.667 120.941 C 121.401 115.828,142.872 109.496,148.961 108.173 C 150.040 107.938,149.820 108.282,143.797 116.214 C 140.336 120.771,136.482 125.850,135.232 127.500 C 132.603 130.970,130.426 135.229,129.099 139.500 L 128.167 142.500 128.080 246.083 C 128.033 303.054,128.080 349.667,128.185 349.667 C 128.599 349.667,157.960 338.221,159.833 337.329 C 168.653 333.129,175.177 325.129,177.912 315.159 L 178.825 311.833 178.924 284.917 C 179.004 263.001,179.104 258.000,179.459 258.000 C 179.699 258.000,180.782 258.309,181.864 258.686 C 194.340 263.032,213.238 264.239,227.833 261.623 C 280.633 252.158,310.586 202.172,302.312 137.333 C 294.838 78.764,254.493 46.407,193.833 50.331 M210.486 98.014 C 237.374 101.094,252.130 121.036,252.159 154.333 C 252.185 183.344,241.921 205.337,225.086 212.346 C 211.763 217.892,191.550 215.507,180.877 207.130 L 179.000 205.657 179.000 153.674 C 179.000 104.504,179.032 101.674,179.583 101.385 C 180.299 101.011,191.995 98.802,196.528 98.185 C 200.595 97.632,206.514 97.559,210.486 98.014 " stroke="none" fill="#44547c" fill-rule="evenodd"></path><path id="path1" d="M184.333 0.516 C 46.339 12.018,-38.518 154.362,17.050 281.126 C 59.585 378.159,172.207 424.908,271.667 386.817 C 374.554 347.413,426.008 232.490,387.097 129.000 C 355.985 46.250,272.246 -6.812,184.333 0.516 M215.530 50.507 C 262.995 55.047,293.358 83.354,301.508 130.667 C 312.131 192.328,287.314 243.688,239.512 258.970 C 221.466 264.740,198.402 264.632,181.250 258.699 L 179.333 258.036 179.332 283.268 C 179.331 310.590,179.270 311.713,177.493 317.156 C 174.763 325.519,168.598 332.948,161.124 336.881 C 158.964 338.017,128.599 350.000,127.879 350.000 C 127.759 350.000,127.699 303.537,127.747 246.750 L 127.833 143.500 128.750 140.174 C 130.416 134.131,132.113 131.294,141.183 119.392 C 145.699 113.465,149.319 108.541,149.226 108.449 C 148.722 107.944,121.777 115.878,101.667 122.453 C 98.642 123.443,96.124 124.141,96.071 124.005 C 95.850 123.438,103.769 84.228,104.698 81.286 C 108.520 69.191,114.617 65.108,135.764 60.484 C 181.049 50.581,196.324 48.670,215.530 50.507 M195.333 98.504 C 193.775 98.745,189.537 99.508,185.917 100.199 L 179.333 101.457 179.338 153.645 L 179.343 205.833 181.255 207.248 C 194.739 217.228,218.499 217.835,231.463 208.530 C 253.858 192.457,259.498 140.675,241.595 115.506 C 232.122 102.188,214.171 95.591,195.333 98.504 " stroke="none" fill="#ebf3fb" fill-rule="evenodd"></path><path id="path2" d="M303.762 158.500 C 303.765 159.417,303.829 159.752,303.906 159.245 C 303.982 158.739,303.980 157.989,303.901 157.579 C 303.822 157.169,303.760 157.583,303.762 158.500 M209.583 263.241 C 210.179 263.315,211.154 263.315,211.750 263.241 C 212.346 263.167,211.858 263.107,210.667 263.107 C 209.475 263.107,208.987 263.167,209.583 263.241 M168.812 331.083 L 167.833 332.167 168.917 331.188 C 169.926 330.275,170.153 330.000,169.896 330.000 C 169.838 330.000,169.351 330.487,168.812 331.083 " stroke="none" fill="#96a4bc" fill-rule="evenodd"></path><path id="path3" d="M196.254 50.236 C 196.669 50.315,197.269 50.312,197.587 50.229 C 197.906 50.146,197.567 50.080,196.833 50.084 C 196.100 50.088,195.839 50.156,196.254 50.236 M207.587 50.236 C 208.002 50.315,208.602 50.312,208.921 50.229 C 209.239 50.146,208.900 50.080,208.167 50.084 C 207.433 50.088,207.173 50.156,207.587 50.236 M274.986 76.417 C 275.803 77.287,276.516 78.000,276.569 78.000 C 276.820 78.000,276.555 77.701,275.083 76.319 L 273.500 74.833 274.986 76.417 M179.163 153.667 C 179.163 182.358,179.202 194.096,179.250 179.750 C 179.298 165.404,179.298 141.929,179.250 127.583 C 179.202 113.237,179.163 124.975,179.163 153.667 M127.749 248.417 C 127.704 304.287,127.779 350.000,127.917 350.000 C 128.142 350.000,128.142 281.645,127.915 183.500 C 127.868 163.333,127.794 192.546,127.749 248.417 M179.158 282.833 C 179.158 296.583,179.199 302.257,179.250 295.441 C 179.300 288.626,179.300 277.376,179.250 270.441 C 179.200 263.507,179.158 269.083,179.158 282.833 " stroke="none" fill="#8c9cb4" fill-rule="evenodd"></path><path id="path4" d="M202.909 97.907 C 203.501 97.981,204.551 97.982,205.243 97.910 C 205.934 97.838,205.450 97.778,204.167 97.776 C 202.883 97.775,202.317 97.834,202.909 97.907 M252.095 151.500 C 252.098 152.417,252.163 152.752,252.239 152.245 C 252.316 151.739,252.314 150.989,252.235 150.579 C 252.156 150.169,252.093 150.583,252.095 151.500 M303.770 155.167 C 303.772 156.267,303.834 156.676,303.908 156.077 C 303.982 155.478,303.981 154.578,303.905 154.077 C 303.829 153.576,303.768 154.067,303.770 155.167 M252.095 157.167 C 252.098 158.083,252.163 158.419,252.239 157.912 C 252.316 157.405,252.314 156.655,252.235 156.245 C 252.156 155.835,252.093 156.250,252.095 157.167 M303.770 161.833 C 303.772 162.933,303.834 163.343,303.908 162.744 C 303.982 162.145,303.981 161.245,303.905 160.744 C 303.829 160.243,303.768 160.733,303.770 161.833 M206.917 215.244 C 207.696 215.314,208.971 215.314,209.750 215.244 C 210.529 215.174,209.892 215.116,208.333 215.116 C 206.775 215.116,206.137 215.174,206.917 215.244 M206.583 263.235 C 206.996 263.315,207.671 263.315,208.083 263.235 C 208.496 263.156,208.158 263.091,207.333 263.091 C 206.508 263.091,206.171 263.156,206.583 263.235 M213.250 263.235 C 213.662 263.315,214.338 263.315,214.750 263.235 C 215.162 263.156,214.825 263.091,214.000 263.091 C 213.175 263.091,212.838 263.156,213.250 263.235 " stroke="none" fill="#a4b0c4" fill-rule="evenodd"></path></g></svg>